<svg xmlns="http://www.w3.org/2000/svg" viewBox="0 0 512 512">
  <defs>
    <linearGradient id="yahooGradient" x1="74" x2="438" y1="54" y2="458" gradientUnits="userSpaceOnUse">
      <stop stop-color="#7b5cff"/>
      <stop offset="0.5" stop-color="#6929e8"/>
      <stop offset="1" stop-color="#5f01d1"/>
    </linearGradient>
  </defs>
  <rect width="512" height="512" rx="64" fill="url(#yahooGradient)"/>
  <path fill="#fff" d="M120 105h272c16.6 0 30 13.4 30 30v129c0 16.6-13.4 30-30 30H120c-16.6 0-30-13.4-30-30V135c0-16.6 13.4-30 30-30Z"/>
  <path fill="#6f4bf2" d="M112 126h288v27L256 238 112 153v-27Z"/>
  <path fill="#fff" d="M92 384h44.1l22.7-61.4h-42.1l-7.6 23.9-7.7-23.9H59.3l31.4 68.7L78.9 423h37.9L92 384Zm72.3 0c0-24.3 18.6-40.6 40.8-40.6 10.7 0 19.1 3.9 24 10.5v-8.6h35.5v77.7h-35.5v-8.6c-4.9 6.7-13.3 10.5-24 10.5-22.2 0-40.8-16.3-40.8-40.9Zm66 0c0-8.7-6.2-15.3-15.2-15.3s-15.2 6.6-15.2 15.3 6.2 15.4 15.2 15.4 15.2-6.7 15.2-15.4Zm49.8 39h35.6v-41.2c0-8 4.6-12.8 11.8-12.8 7 0 10.9 4.2 10.9 12.3V423H374v-48.8c0-19.3-10.8-30.8-28.2-30.8-11.5 0-21.4 5.1-30.1 13.2v-40.1h-35.6V423Zm104.5-38.9c0-23.4 18.8-40.7 43.1-40.7s43.1 17.3 43.1 40.7c0 23.5-18.8 40.9-43.1 40.9s-43.1-17.4-43.1-40.9Zm51.3 0c0-8.8-6.2-15.5-15.3-15.5s-15.4 6.7-15.4 15.5 6.3 15.6 15.4 15.6 15.3-6.8 15.3-15.6Z"/>
</svg>
</svg>
