<svg xmlns="http://www.w3.org/2000/svg" viewBox="0 0 512 512">
  <defs>
    <linearGradient id="yahooGradient" x1="84" x2="428" y1="48" y2="464" gradientUnits="userSpaceOnUse">
      <stop stop-color="#7b61ff"/>
      <stop offset=".5" stop-color="#6b2df0"/>
      <stop offset="1" stop-color="#6001d2"/>
    </linearGradient>
  </defs>
  <rect width="512" height="512" fill="url(#yahooGradient)"/>
  <path fill="#fff" d="M121 105h270c17.7 0 32 14.3 32 32v126c0 17.7-14.3 32-32 32H121c-17.7 0-32-14.3-32-32V137c0-17.7 14.3-32 32-32Z"/>
  <path fill="#7357f7" d="M109 126h294v27.5L256 238 109 153.5V126Z"/>
  <path fill="#fff" d="M126.1 386.5c0 13.6-10.7 25.4-28.9 25.4-13.7 0-27.2-5.5-35.5-13.4l14.2-19.8c5.5 5.6 12 8.8 18.1 8.8 5.1 0 7.7-2.2 7.7-5.9 0-11.8-36.3-7.3-36.3-33.9 0-15.3 12.6-25.8 30.2-25.8 11.8 0 22.8 4 30.8 10.5l-13.6 20.2c-5.1-4-10.1-6.4-15.4-6.4-4.6 0-7.2 1.8-7.2 5.2 0 11 35.9 6.7 35.9 35.1Zm31.7 23.8h-27.3l27.9-86.6h32.2l27.9 86.6h-28l-3.7-14.2h-25.2l-3.8 14.2Zm9.6-36.7H181l-6.7-25.4-6.9 25.4Zm103.1-49.9h27.8v86.6h-27.8v-31.7h-27v31.7h-27.8v-86.6h27.8v30.2h27v-30.2Zm39.2 43.3c0-26.1 18.9-45 44.9-45 26.1 0 45 18.9 45 45s-18.9 45-45 45c-26 0-44.9-18.9-44.9-45Zm61.2 0c0-12.4-6.3-20.8-16.3-20.8-9.9 0-16.2 8.4-16.2 20.8s6.3 20.8 16.2 20.8c10 0 16.3-8.4 16.3-20.8Zm40.6 43.3v-27.5h27.9v27.5h-27.9Zm3.4-34.8-2-51.8h29.8l-2 51.8h-25.8Z"/>
</svg>
</svg>
